<svg width="22px" height="22px" viewBox="0 0 22 22" version="1.1" xmlns="http://www.w3.org/2000/svg" xmlns:xlink="http://www.w3.org/1999/xlink">
    <!-- Generator: Sketch 51.1 (57501) - http://www.bohemiancoding.com/sketch -->
    <desc>Created with Sketch.</desc>
    <defs></defs>
    <g id="Symbols" stroke="none" stroke-width="1" fill="none" fill-rule="evenodd">
        <g id="Desktop-/-Header_1500px" transform="translate(-986.000000, -9.000000)" fill="#3D8FC8" fill-rule="nonzero">
            <g id="Group-8" transform="translate(149.000000, 0.000000)">
                <path d="M851.921683,31 C853.702791,30.9996978 855.295497,30.4020934 856.527618,29.1689676 L858.327064,27.368575 C859.224362,26.4700461 859.224362,25.0081928 858.326762,24.1102716 L855.592728,21.3743398 C855.124979,20.905964 854.479135,20.6629812 853.817531,20.7039305 C853.157136,20.7463977 852.54661,21.0712895 852.142369,21.595179 L850.36914,23.8930692 C849.079274,23.2002141 847.875349,22.298347 846.7854,21.207493 C845.701062,20.1224015 844.803159,18.9244659 844.112451,17.6421968 L846.414506,15.8633401 C846.938032,15.4589708 847.262695,14.8480211 847.305136,14.1876224 C847.347425,13.5269216 847.103395,12.8792672 846.635344,12.4108915 L843.901463,9.67495963 C843.466606,9.23964825 842.888365,9 842.273289,9 C841.658216,9 841.080124,9.23964825 840.64542,9.67495963 L839.21429,11.1067809 C839.066507,11.2323693 838.943734,11.344609 838.829754,11.4586689 C835.497016,14.7934174 836.808407,20.763991 842.018499,25.9776996 C845.302134,29.2636139 848.885874,31 851.921683,31 Z M839.926828,12.5571091 C840.027167,12.4570024 840.132661,12.3632661 840.240127,12.2728678 C840.256951,12.2586091 840.273168,12.2437459 840.288781,12.2279727 L841.742952,10.7730977 C841.884671,10.6311281 842.072923,10.5531685 842.273299,10.5531685 C842.473676,10.5531685 842.662077,10.6311316 842.803948,10.7730977 L845.537829,13.5090295 C845.692585,13.6640421 845.770189,13.8697159 845.756242,14.088127 C845.742146,14.3065417 845.639078,14.5003812 845.465984,14.6341602 L842.853814,16.6526652 C842.44321,16.9699708 842.314224,17.5351153 842.546881,17.9968184 C843.33308,19.5569583 844.389983,21.0066751 845.687882,22.305631 C846.991844,23.6106516 848.448442,24.6720815 850.017503,25.4601874 C850.477973,25.6913395 851.041816,25.5621143 851.358451,25.1522846 L853.370856,22.5443692 C853.504542,22.3711554 853.6984,22.2680163 853.916663,22.2540597 C854.135533,22.2379843 854.340457,22.317764 854.495209,22.4724744 L857.229393,25.2084062 C857.521927,25.5011402 857.521622,25.9777065 857.229393,26.2704405 L855.430249,28.070833 C852.743353,30.7588338 847.679981,29.4468384 843.115882,24.8795685 C838.552079,20.312302 837.240692,15.2451099 839.926828,12.5571091 Z" id="Shape"></path>
            </g>
        </g>
    </g>
</svg>