<svg width="17px" height="20px" viewBox="0 0 17 20" version="1.1" xmlns="http://www.w3.org/2000/svg" xmlns:xlink="http://www.w3.org/1999/xlink">
    <!-- Generator: Sketch 51.1 (57501) - http://www.bohemiancoding.com/sketch -->
    <desc>Created with Sketch.</desc>
    <defs></defs>
    <g id="Symbols" stroke="none" stroke-width="1" fill="none" fill-rule="evenodd">
        <g id="Desktop-/-Header_1500px" transform="translate(-1193.000000, -74.000000)" fill="#FFFFFF" fill-rule="nonzero">
            <g id="Group-5">
                <g id="Group-4" transform="translate(1170.000000, 59.000000)">
                    <g id="Group-6" transform="translate(23.000000, 15.000000)">
                        <g id="noun_avatar_1192751">
                            <g id="Group">
                                <path d="M8.53658537,9.82926829 C5.85365854,9.82926829 3.65853659,7.63414634 3.65853659,4.95121951 C3.65853659,2.26829268 5.85365854,0.0731707317 8.53658537,0.0731707317 C11.2195122,0.0731707317 13.4146341,2.26829268 13.4146341,4.95121951 C13.4146341,7.63414634 11.2195122,9.82926829 8.53658537,9.82926829 Z M8.53658537,1.56097561 C6.65853659,1.56097561 5.12195122,3.09756098 5.12195122,4.97560976 C5.12195122,6.85365854 6.65853659,8.3902439 8.53658537,8.3902439 C10.4146341,8.3902439 11.9512195,6.85365854 11.9512195,4.97560976 C11.9512195,3.09756098 10.4146341,1.56097561 8.53658537,1.56097561 Z" id="Shape"></path>
                                <path d="M16.195122,19.902439 L16.195122,19.902439 C15.7910112,19.902439 15.4634146,19.5748425 15.4634146,19.1707317 L15.4634146,18.6829268 C15.4634146,15.0487805 12.5121951,12.097561 8.87804878,12.097561 L8.19512195,12.097561 C4.56097561,12.097561 1.6097561,15.0487805 1.6097561,18.6829268 L1.6097561,19.1707317 C1.6097561,19.5748425 1.28215957,19.902439 0.87804878,19.902439 L0.87804878,19.902439 C0.473937988,19.902439 0.146341463,19.5748425 0.146341463,19.1707317 L0.146341463,18.6829268 C0.146341463,14.2439024 3.75609756,10.6341463 8.19512195,10.6341463 L8.87804878,10.6341463 C13.3170732,10.6341463 16.9268293,14.2439024 16.9268293,18.6829268 L16.9268293,19.1707317 C16.9268293,19.5748425 16.5992327,19.902439 16.195122,19.902439 Z" id="Shape"></path>
                            </g>
                        </g>
                    </g>
                </g>
            </g>
        </g>
    </g>
</svg>