
<svg width="15px" height="8px" viewBox="0 0 15 8" version="1.1" xmlns="http://www.w3.org/2000/svg" xmlns:xlink="http://www.w3.org/1999/xlink">
    <!-- Generator: Sketch 51.1 (57501) - http://www.bohemiancoding.com/sketch -->
    <desc>Created with Sketch.</desc>
    <defs></defs>
    <g id="Symbols" stroke="none" stroke-width="1" fill="none" fill-rule="evenodd">
        <g id="Desktop-/-Header_1500px" transform="translate(-719.000000, -16.000000)" fill="#3D8FC8" fill-rule="nonzero">
            <path d="M730.384855,20.1691389 C730.372054,19.9901245 730.299634,19.8205629 730.179161,19.6875352 L724.399899,13.2661305 C724.208132,13.0528082 723.91712,12.9580069 723.636499,13.0174419 C723.355878,13.0768769 723.128287,13.2815173 723.039469,13.5542667 C722.950652,13.8270161 723.014103,14.1264308 723.205919,14.3397091 L728.503576,20.2243309 L723.205919,26.1089383 C723.014103,26.3222165 722.950652,26.6216312 723.039469,26.8943806 C723.128287,27.1671301 723.355878,27.3717704 723.636499,27.4312055 C723.91712,27.4906405 724.208132,27.3958391 724.399899,27.1825169 L730.179161,20.7611122 C730.325098,20.5998064 730.399326,20.3861821 730.384855,20.1691389 Z" id="Shape" transform="translate(726.693317, 20.224324) rotate(-270.000000) translate(-726.693317, -20.224324) "></path>
        </g>
    </g>
</svg>