
<svg width="20px" height="20px" viewBox="0 0 20 20" version="1.1" xmlns="http://www.w3.org/2000/svg" xmlns:xlink="http://www.w3.org/1999/xlink">
    <!-- Generator: Sketch 51.1 (57501) - http://www.bohemiancoding.com/sketch -->
    <desc>Created with Sketch.</desc>
    <defs></defs>
    <g id="Symbols" stroke="none" stroke-width="1" fill="none" fill-rule="evenodd">
        <g id="Desktop-/-Header_1500px" transform="translate(-1317.000000, -11.000000)" fill="#3D8FC8" fill-rule="nonzero">
            <g id="Group-8" transform="translate(149.000000, 0.000000)">
                <path d="M1183.68842,25.7466667 C1186.7075,22.2437778 1186.55858,16.936 1183.23633,13.6144444 C1181.55019,11.9284444 1179.30839,11 1176.92366,11 C1174.53894,11 1172.29691,11.9284444 1170.61055,13.6144444 C1167.12982,17.0946667 1167.12982,22.7573333 1170.61055,26.2375556 C1172.29668,27.9235556 1174.53871,28.852 1176.92344,28.852 C1179.08434,28.852 1181.12655,28.0873333 1182.74578,26.69 L1186.86176,30.8051111 C1186.99179,30.9348889 1187.16249,31 1187.33319,31 C1187.5039,31 1187.6746,30.9348889 1187.80463,30.8046667 C1188.06512,30.5444444 1188.06512,30.1222222 1187.80463,29.862 L1183.68842,25.7466667 Z M1171.55364,25.2946667 C1168.59279,22.3344444 1168.59279,17.5175556 1171.55364,14.5571111 C1172.98794,13.1231111 1174.89523,12.3333333 1176.92366,12.3333333 C1178.95209,12.3333333 1180.85916,13.1231111 1182.29346,14.5571111 C1185.25431,17.5175556 1185.25431,22.3344444 1182.29346,25.2946667 C1180.85894,26.7286667 1178.95187,27.5184444 1176.92344,27.5184444 C1174.89501,27.5184444 1172.98794,26.7286667 1171.55364,25.2946667 Z" id="Shape"></path>
            </g>
        </g>
    </g>
</svg>