
<svg width="170px" height="46px" viewBox="0 0 170 46" version="1.1" xmlns="http://www.w3.org/2000/svg" xmlns:xlink="http://www.w3.org/1999/xlink">
    <!-- Generator: Sketch 51.1 (57501) - http://www.bohemiancoding.com/sketch -->
    <desc>Created with Sketch.</desc>
    <defs>
        <polygon id="path-1" points="3.6804647e-21 0.0666976808 3.6804647e-21 23.7405724 44.4940337 23.7405724 44.4940337 0.0666976808 0 0.0666976808"></polygon>
    </defs>
    <g id="Symbols" stroke="none" stroke-width="1" fill="none" fill-rule="evenodd">
        <g id="Desktop-/-Header_1500px" transform="translate(-150.000000, -61.000000)">
            <g id="Group-5">
                <g id="Group-3" transform="translate(150.000000, 61.000000)">
                    <path d="M0,0.667194064 L0,20.3402942 C0.830462165,20.0030038 1.83744507,19.5125477 2.7195056,18.888479 C3.36258422,18.4338702 3.93342512,17.9113689 4.33426297,17.3557359 C4.70196924,16.8484425 5.380352,16.6751806 5.94521835,16.946751 C6.51171413,17.2177782 6.80120813,17.8521665 6.63717963,18.4566822 L6.63717963,18.4593979 L6.63120509,18.4767784 C6.6274031,18.4941589 6.62088541,18.5191433 6.61165202,18.5555338 C6.59427152,18.6245126 6.5687439,18.7320545 6.53561232,18.8683828 C6.47315114,19.1410395 6.3873349,19.5397048 6.30043239,20.0214706 C6.12934306,20.9828297 5.95934001,22.2831086 5.96042629,23.5752403 C5.96042629,24.3014195 6.01311094,25.0205378 6.13966273,25.6744792 C6.2645851,26.3284207 6.45957262,26.9074087 6.72408215,27.3631037 C6.89843032,27.6683488 7.09776297,27.9181936 7.3302272,28.1224145 C7.64144683,28.3923554 8.00698054,28.5944038 8.52567993,28.7144379 C8.85645263,28.7888481 9.1535506,28.8225229 9.42620725,28.8225229 C9.74231515,28.8225229 10.0263777,28.7790716 10.2946893,28.7014025 C10.5602851,28.6253628 10.8117592,28.5134758 11.0545431,28.3690004 C11.5373952,28.0773338 11.9898315,27.6411918 12.3988164,27.1023962 C12.6709299,26.7422939 12.9186021,26.3387403 13.1429192,25.9188926 C13.4427329,25.3545693 13.6963796,24.7603734 13.9060319,24.1911619 C14.1846631,23.4307649 14.3883409,22.7214231 14.5322732,22.1880589 C14.7049919,21.5466097 15.3312332,21.1414268 15.9857178,21.2440803 C16.6434612,21.3494497 17.113821,21.9289808 17.0796032,22.5954145 L17.0779737,22.6068204 C17.0779737,22.6203989 17.0779737,22.6426677 17.075258,22.6741699 C17.0730855,22.7350016 17.0730855,22.8257061 17.0730855,22.944654 C17.0730855,23.3123602 17.0915523,23.9364289 17.1811705,24.6376236 C17.2686161,25.3404477 17.4315584,26.1247429 17.6938953,26.8020394 C17.8693298,27.2544756 18.0876724,27.6569429 18.3353445,27.9697919 C18.4787337,28.1495715 18.6286405,28.2994783 18.7921259,28.421685 C18.9757074,28.5639879 19.1755832,28.6693572 19.4075043,28.7464832 L19.4091337,28.7464832 C19.9039349,28.9094254 20.4036244,28.9854651 20.9168924,28.9854651 C21.4214701,28.9854651 21.9385401,28.9115979 22.4713611,28.7709245 C23.003639,28.6318805 23.5473229,28.421685 24.0969813,28.1560892 C24.4505659,27.9833704 24.80578,27.7845809 25.1593646,27.5667815 C24.7368011,26.4625764 24.4989054,25.210637 24.4989054,23.9087287 C24.4989054,22.971811 24.6221984,22.0050205 24.8992002,21.0566968 C25.1778313,20.1089162 25.6090851,19.1747142 26.222291,18.3154656 C26.9169679,17.3410711 27.6974612,16.6154351 28.5235782,16.1314967 C29.3502384,15.6470152 30.2257812,15.4123784 31.0616748,15.4123784 C31.9258117,15.4123784 32.7410659,15.6627663 33.412931,16.0956494 C34.0847961,16.530162 34.6230485,17.1460836 34.9494761,17.8825824 C35.1667324,18.3697796 35.2873096,18.9134635 35.2873096,19.475071 C35.2873096,19.8992639 35.2183308,20.3343196 35.0771142,20.7617714 C34.9348113,21.1870506 34.7219001,21.6009238 34.4416395,21.9941577 C33.6551718,23.0967334 32.5602001,24.4757677 31.2463426,25.8488274 C30.4414081,26.6901524 29.5555456,27.5271322 28.6045062,28.2962195 C28.6533888,28.3413002 28.7006421,28.3858377 28.7484385,28.4244007 C29.0656326,28.6823925 29.4045525,28.8676035 29.7890961,28.996871 C30.1714672,29.1245091 30.6043503,29.1929448 31.093177,29.1929448 C31.6314294,29.1929448 32.2408333,29.108758 32.9132415,28.923547 C33.5845635,28.7394223 34.316174,28.4553597 35.0966672,28.0708161 C36.6603694,27.29847 38.4092825,26.1176821 40.2684532,24.538772 C41.6127265,23.3943745 42.9684057,22.2673575 44.494088,20.9828297 L44.494088,0.667194064 L0,0.667194064 Z" id="Fill-1" fill="#E63C2F"></path>
                    <path d="M32.3303429,20.4861275 C32.4693869,20.29114 32.558462,20.109731 32.6149486,19.9424436 C32.6692627,19.7746131 32.6926178,19.619818 32.6926178,19.4747994 C32.6915315,19.2825276 32.6524253,19.1011186 32.5791014,18.9305724 C32.5025185,18.7632851 32.3900884,18.6019723 32.2450698,18.4634714 C31.9555758,18.1897285 31.5493065,18.0072332 31.0615662,18.0072332 C30.705809,18.0072332 30.2989966,18.1011966 29.8340681,18.3722238 C29.3723985,18.6421647 28.853156,19.0962304 28.3344566,19.8234958 C27.9026597,20.4285546 27.5930695,21.0901 27.3915643,21.7836907 C27.1878865,22.4751088 27.0939232,23.1996585 27.0939232,23.9090003 C27.0939232,24.6254029 27.1911454,25.3233387 27.3606053,25.9588134 C29.4326871,24.2044689 31.2364575,22.0205 32.3303429,20.4861275" id="Fill-3" fill="#E63C2F"></path>
                    <g id="Group-7" transform="translate(0.000000, 21.424892)">
                        <mask id="mask-2" fill="white">
                            <use xlink:href="#path-1"></use>
                        </mask>
                        <g id="Clip-6"></g>
                        <path d="M37.621131,8.22304192 C36.227975,9.04644325 34.8907626,9.64552747 33.6008034,10.0001984 C32.7420979,10.2364646 31.9062043,10.3635595 31.0931226,10.3635595 C30.3560807,10.3635595 29.6423938,10.2592765 28.9699856,10.0338731 C28.2954048,9.80901283 27.6648184,9.46466161 27.1086423,9.01059596 C26.8778075,8.82212613 26.6648963,8.60975811 26.4671931,8.38435471 C25.4140432,9.02417448 24.3038636,9.54558958 23.1350248,9.85409351 C22.414277,10.0469085 21.67289,10.1566229 20.9173812,10.1566229 C20.1477508,10.1566229 19.365085,10.0398476 18.597084,9.78674406 L18.5987135,9.78674406 C18.0175529,9.59610166 17.504828,9.30117625 17.0719449,8.9443328 C16.6374323,8.58314422 16.2838477,8.16709842 15.9927243,7.7266113 C15.6554339,7.21225703 15.4023303,6.66803003 15.2051702,6.12000104 C14.9933453,6.48607788 14.7587085,6.84998217 14.5007167,7.19867851 C13.9988547,7.86891416 13.4003136,8.49406914 12.6670736,8.9910429 C12.2499415,9.27293293 11.7860994,9.51191485 11.2826079,9.6846336 C10.7112239,9.88287997 10.0833532,9.98987869 9.42615293,9.98987869 C8.94764595,9.98987869 8.45447418,9.93447833 7.94881017,9.81987564 C7.18135232,9.64552747 6.49373617,9.32616072 5.92289527,8.89653641 C5.35042495,8.4669121 4.8963593,7.93191849 4.54711982,7.3572756 C4.31356931,6.97001627 4.12618576,6.56483329 3.97519264,6.1515032 C3.77368743,5.59749966 3.63355712,5.02557248 3.54013692,4.45147274 C3.41412827,3.68129919 3.3652456,2.9051511 3.3652456,2.15072863 C3.3652456,1.42617891 3.41195571,0.720639111 3.47876202,0.0666976808 C2.90248971,0.417023447 2.33001939,0.715207704 1.79448263,0.966138718 C1.11012532,1.2806172 0.488229196,1.52285796 -5.43140724e-05,1.69286101 L-5.43140724e-05,23.7405724 L44.4940337,23.7405724 L44.4940337,2.94588665 C43.6125163,3.68564432 42.7766227,4.38629585 41.9494194,5.09129251 C40.4584981,6.35463783 39.0159164,7.40181314 37.621131,8.22304192" id="Fill-5" fill="#E63C2F" mask="url(#mask-2)"></path>
                    </g>
                    <path d="M59.1855557,0.747090064 L59.1855557,8.53681431 C59.1855557,9.90661521 60.3239787,10.8489644 61.8360825,10.8489644 C63.3302626,10.8489644 64.4686856,9.90661521 64.4686856,8.53681431 L64.4686856,0.747090064 L66.9046717,0.747090064 L66.9046717,8.48358652 C66.9046717,11.2400257 65.072658,13.1964186 61.8360825,13.1964186 C58.5810401,13.1964186 56.7669501,11.2400257 56.7669501,8.48358652 L56.7669501,0.747090064 L59.1855557,0.747090064 Z" id="Fill-8" fill="#2E2A25"></path>
                    <path d="M71.0411771,3.94787266 L71.4322384,5.17537069 C71.4322384,5.17537069 72.1616764,3.77080878 74.135993,3.77080878 C75.8436274,3.77080878 77.6039465,4.69469115 77.6039465,7.62982362 L77.6039465,13.1964729 L75.1315699,13.1964729 L75.1315699,7.75474598 C75.1315699,6.66955082 74.4200556,6.10033934 73.4956301,6.10033934 C72.2860557,6.10033934 71.6283123,7.0426885 71.6283123,8.09257951 L71.6283123,13.1964729 L69.138012,13.1964729 L69.138012,3.94787266 L71.0411771,3.94787266 Z" id="Fill-10" fill="#2E2A25"></path>
                    <path d="M82.5950295,1.36952933 C82.5950295,2.11634783 81.9546666,2.7387871 81.207305,2.7387871 C80.4425628,2.7387871 79.8733514,2.11634783 79.8733514,1.36952933 C79.8733514,0.640634483 80.4425628,0.000271570361 81.207305,0.000271570361 C81.9725903,0.000271570361 82.5950295,0.640634483 82.5950295,1.36952933 L82.5950295,1.36952933 Z M82.61241,3.94781834 L82.61241,13.1964186 L80.211728,13.1964186 L80.211728,6.06443774 L79.127076,5.67337642 L79.127076,3.94781834 L82.61241,3.94781834 Z" id="Fill-12" fill="#2E2A25"></path>
                    <polygon id="Fill-14" fill="#2E2A25" points="86.2733414 3.94787266 88.1585829 10.475881 88.193887 10.475881 90.1687467 3.94787266 92.6938079 3.94787266 89.33231 13.1964729 86.9843127 13.1964729 83.7656607 3.94787266"></polygon>
                    <path d="M99.71325,7.80791946 C99.6600222,6.79333259 99.2689609,5.90475437 97.9170836,5.90475437 C96.760737,5.90475437 95.9253866,6.56304092 95.6940087,7.80791946 L99.71325,7.80791946 Z M97.7747808,3.77075447 C100.638219,3.77075447 102.024857,5.99382945 102.024857,8.44773923 C102.024857,9.0701785 101.936325,9.51555389 101.936325,9.51555389 L95.7293128,9.51555389 C95.8357684,10.8315839 96.9741913,11.3291008 98.0773101,11.3291008 C99.1261149,11.3291008 100.086388,11.044495 100.691446,10.7772698 L101.50996,12.5739793 C100.584991,13.1078866 99.2689609,13.3745687 98.0240824,13.3745687 C95.2317959,13.3745687 93.1863279,11.4893273 93.1863279,8.66173668 C93.1863279,5.81622243 95.0357221,3.77075447 97.7747808,3.77075447 L97.7747808,3.77075447 Z" id="Fill-16" fill="#2E2A25"></path>
                    <path d="M105.611813,4.03721931 L105.932266,5.49555215 C106.501477,4.32182505 107.46175,3.94760109 109.09769,3.94760109 L109.09769,6.47374859 L108.79516,6.47374859 C107.230372,6.47374859 106.109873,7.07880736 106.109873,9.06996125 L106.109873,13.1967445 L103.655963,13.1967445 L103.655963,4.03721931 L105.611813,4.03721931 Z" id="Fill-18" fill="#2E2A25"></path>
                    <path d="M110.107062,12.5561643 L110.835957,10.8132257 C111.47632,11.0978314 112.437136,11.435665 113.378942,11.435665 C114.642287,11.435665 115.051272,10.9913759 115.051272,10.5823909 C115.051272,9.12405806 110.142367,10.0484836 110.142367,6.5984537 C110.142367,4.85551512 111.530091,3.7708631 113.699938,3.7708631 C115.069196,3.7708631 116.331455,4.19722856 116.989742,4.49975795 L116.260847,6.22422974 C116.260847,6.22422974 115.051272,5.69140869 113.859622,5.69140869 C112.828197,5.69140869 112.437136,6.15362145 112.437136,6.56314955 C112.437136,7.98563511 117.327575,7.11389425 117.327575,10.5291631 C117.327575,12.3247863 115.833938,13.3746774 113.485941,13.3746774 C111.814697,13.3746774 110.676274,12.84077 110.107062,12.5561643" id="Fill-20" fill="#2E2A25"></path>
                    <path d="M121.823042,1.36952933 C121.823042,2.11634783 121.182679,2.7387871 120.435318,2.7387871 C119.670576,2.7387871 119.101364,2.11634783 119.101364,1.36952933 C119.101364,0.640634483 119.670576,0.000271570361 120.435318,0.000271570361 C121.200603,0.000271570361 121.823042,0.640634483 121.823042,1.36952933 L121.823042,1.36952933 Z M121.840423,3.94781834 L121.840423,13.1964186 L119.439741,13.1964186 L119.439741,6.06443774 L118.355089,5.67337642 L118.355089,3.94781834 L121.840423,3.94781834 Z" id="Fill-22" fill="#2E2A25"></path>
                    <path d="M125.998437,8.55500953 C125.998437,10.2441772 127.029861,11.2397541 128.399662,11.2397541 C129.911222,11.2397541 130.854115,10.031266 130.854115,8.57239003 C130.854115,7.11405719 129.911222,5.9044828 128.381738,5.9044828 C126.994557,5.9044828 125.998437,6.90114602 125.998437,8.55500953 L125.998437,8.55500953 Z M132.970734,0.178150157 L132.970734,13.1966901 L131.067569,13.1966901 L130.765583,12.022963 C130.12522,13.0006163 129.057948,13.3748403 127.973296,13.3748403 C125.304846,13.3748403 123.579831,11.0979944 123.579831,8.57239003 C123.579831,6.04732881 125.32277,3.7704829 127.936906,3.7704829 C129.004177,3.7704829 130.035602,4.14362057 130.587433,4.87305857 L130.587433,0.178150157 L132.970734,0.178150157 Z" id="Fill-24" fill="#2E2A25"></path>
                    <path d="M138.761863,8.98148362 C137.961274,8.98148362 136.733776,9.17755742 136.733776,10.2622094 C136.733776,11.0801794 137.445833,11.5423921 138.24588,11.5423921 C139.170305,11.5423921 140.23812,10.9020292 140.23812,10.048212 L140.23812,9.12432963 C139.775364,9.05263506 139.241457,8.98148362 138.761863,8.98148362 M138.956851,3.77059153 C141.251621,3.77059153 142.549727,4.83786305 142.549727,6.84748372 L142.549727,10.6891181 C142.549727,10.9384196 142.674649,11.0084848 142.940788,11.0084848 C143.083634,11.0084848 143.38562,10.9916474 143.759301,10.955257 L143.759301,12.8942694 C143.68815,12.9474972 142.940788,13.1967988 142.283045,13.1967988 C141.69591,13.1967988 140.717713,13.000725 140.717713,11.9872244 L140.717713,11.7916937 C140.20173,12.6987387 139.117077,13.3744058 137.836895,13.3744058 C136.146641,13.3744058 134.492777,12.3250579 134.492777,10.3692082 C134.492777,8.376968 136.199869,7.4166952 138.316488,7.4166952 C138.938927,7.4166952 139.650985,7.46992299 140.23812,7.54053128 L140.23812,7.27384919 C140.23812,5.92251507 139.313151,5.74490805 138.56579,5.74490805 C137.765743,5.74490805 136.467094,5.94043871 135.773503,6.10066523 L135.329214,4.37510715 C136.164565,4.09050141 137.711972,3.77059153 138.956851,3.77059153" id="Fill-26" fill="#2E2A25"></path>
                    <path d="M147.096847,8.55500953 C147.096847,10.2441772 148.128271,11.2397541 149.498072,11.2397541 C151.009632,11.2397541 151.952525,10.031266 151.952525,8.57239003 C151.952525,7.11405719 151.009632,5.9044828 149.480148,5.9044828 C148.092967,5.9044828 147.096847,6.90114602 147.096847,8.55500953 L147.096847,8.55500953 Z M154.069144,0.178150157 L154.069144,13.1966901 L152.165979,13.1966901 L151.863993,12.022963 C151.22363,13.0006163 150.156358,13.3748403 149.071706,13.3748403 C146.403256,13.3748403 144.678241,11.0979944 144.678241,8.57239003 C144.678241,6.04732881 146.42118,3.7704829 149.035316,3.7704829 C150.102587,3.7704829 151.134012,4.14362057 151.685843,4.87305857 L151.685843,0.178150157 L154.069144,0.178150157 Z" id="Fill-28" fill="#2E2A25"></path>
                    <polygon id="Fill-30" fill="#2E2A25" points="65.6419781 17.9929486 65.6419781 20.3056418 59.3279672 20.3056418 59.3279672 23.239688 64.7170095 23.239688 64.7170095 25.4817729 59.3279672 25.4817729 59.3279672 28.1306702 65.7663574 28.1306702 65.7663574 30.4433634 56.8382102 30.4433634 56.8382102 17.9929486"></polygon>
                    <path d="M69.8676673,21.1945459 L69.8676673,26.6199786 C69.8676673,27.7040875 70.4194983,28.273299 71.611149,28.273299 C72.5893454,28.273299 73.3899349,27.7746958 73.3899349,26.6547396 L73.3899349,21.1945459 L75.8796919,21.1945459 L75.8796919,30.4431461 L73.9759837,30.4431461 L73.6745406,29.3937983 C73.0694818,30.1938446 72.197741,30.6207532 71.0419375,30.6207532 C68.6407124,30.6207532 67.4137575,29.2161913 67.4137575,26.744901 L67.4137575,21.1945459 L69.8676673,21.1945459 Z" id="Fill-32" fill="#2E2A25"></path>
                    <path d="M80.0346642,21.2831322 L80.3551172,22.7425513 C80.9243287,21.568281 81.8846015,21.1946002 83.5205413,21.1946002 L83.5205413,23.7202046 L83.2180119,23.7202046 C81.6532235,23.7202046 80.5332673,24.3252634 80.5332673,26.3169604 L80.5332673,30.4432005 L78.0788144,30.4432005 L78.0788144,21.2831322 L80.0346642,21.2831322 Z" id="Fill-34" fill="#2E2A25"></path>
                    <path d="M86.8424986,25.8196607 C86.8424986,27.3486019 87.8027714,28.4864817 89.2078765,28.4864817 C90.5597537,28.4864817 91.5732543,27.3486019 91.5732543,25.8196607 C91.5732543,24.2369487 90.5771342,23.1512104 89.2078765,23.1512104 C87.8027714,23.1512104 86.8424986,24.2369487 86.8424986,25.8196607 M89.2078765,21.0172105 C91.8752405,21.0172105 94.0277072,22.9562229 94.0277072,25.8196607 C94.0277072,28.665175 91.85786,30.6204816 89.2078765,30.6204816 C86.5399692,30.6204816 84.3880457,28.665175 84.3880457,25.8196607 C84.3880457,22.9741465 86.5225887,21.0172105 89.2078765,21.0172105" id="Fill-36" fill="#2E2A25"></path>
                    <path d="M97.880476,25.8196607 C97.880476,27.3844492 98.8233682,28.4864817 100.334929,28.4864817 C101.633035,28.4864817 102.71823,27.4023728 102.71823,25.8196607 C102.71823,24.2011014 101.633035,23.1512104 100.334929,23.1512104 C99.0188989,23.1512104 97.880476,24.1120263 97.880476,25.8196607 M105.137379,25.8544217 C105.137379,28.3800261 103.607895,30.6204816 100.743914,30.6204816 C100.121475,30.6204816 98.7342932,30.2826481 98.1297775,29.2691475 L98.1297775,33.4659958 L95.746476,33.4659958 L95.746476,21.1942743 L97.7023258,21.1942743 L98.1297775,22.4576197 C98.7695973,21.5141842 99.8906398,21.0172105 100.762381,21.0172105 C103.482973,21.0172105 105.137379,23.0985257 105.137379,25.8544217" id="Fill-38" fill="#2E2A25"></path>
                    <path d="M112.937695,25.053778 C112.884467,24.0402774 112.493406,23.1511561 111.141528,23.1511561 C109.985182,23.1511561 109.149831,23.8088995 108.918453,25.053778 L112.937695,25.053778 Z M110.999225,21.0171562 C113.862663,21.0171562 115.249302,23.239688 115.249302,25.6952272 C115.249302,26.3165802 115.16077,26.7614124 115.16077,26.7614124 L108.953757,26.7614124 C109.060213,28.0779856 110.198636,28.5749593 111.301755,28.5749593 C112.35056,28.5749593 113.311375,28.2914399 113.915891,28.0242146 L114.733861,29.8198379 C113.809436,30.3548315 112.493406,30.6204273 111.248527,30.6204273 C108.456241,30.6204273 106.410773,28.735729 106.410773,25.9081384 C106.410773,23.0626241 108.260167,21.0171562 110.999225,21.0171562 L110.999225,21.0171562 Z" id="Fill-40" fill="#2E2A25"></path>
                    <path d="M120.473066,26.2281026 C119.672477,26.2281026 118.444979,26.4230901 118.444979,27.5088284 C118.444979,28.3273415 119.157036,28.7900974 119.957082,28.7900974 C120.881508,28.7900974 121.949323,28.1486482 121.949323,27.2959172 L121.949323,26.3709486 C121.486567,26.2987109 120.952659,26.2281026 120.473066,26.2281026 M120.668054,21.0172105 C122.962823,21.0172105 124.260929,22.0833957 124.260929,24.0941027 L124.260929,27.935737 C124.260929,28.1850386 124.385852,28.2551037 124.651991,28.2551037 C124.794837,28.2551037 125.096823,28.2371801 125.470504,28.2029622 L125.470504,30.1414315 C125.399352,30.1941161 124.651991,30.4434177 123.994247,30.4434177 C123.407112,30.4434177 122.428916,30.2478871 122.428916,29.2343865 L122.428916,29.0377695 C121.912932,29.9448145 120.82828,30.6204816 119.548097,30.6204816 C117.857844,30.6204816 116.20398,29.57222 116.20398,27.6158271 C116.20398,25.6230438 117.911071,24.6633141 120.027691,24.6633141 C120.65013,24.6633141 121.362187,24.7159988 121.949323,24.7882365 L121.949323,24.5204681 C121.949323,23.169134 121.024354,22.9904407 120.276992,22.9904407 C119.476946,22.9904407 118.178297,23.1870577 117.484706,23.3461979 L117.040417,21.621183 C117.875767,21.3371204 119.423175,21.0172105 120.668054,21.0172105" id="Fill-42" fill="#2E2A25"></path>
                    <polygon id="Fill-44" fill="#2E2A25" points="89.5171951 45.2481303 89.8273285 45.2481303 89.8273285 41.3554407 89.5171951 41.3554407"></polygon>
                    <polygon id="Fill-46" fill="#2E2A25" points="93.9374372 45.2478587 91.1951197 41.8298741 91.1951197 45.2478587 90.8985649 45.2478587 90.8985649 41.3551692 91.1723078 41.3551692 93.8304385 44.673759 93.8304385 41.3551692 94.1280796 41.3551692 94.1280796 45.2478587"></polygon>
                    <polygon id="Fill-47" fill="#2E2A25" points="96.4082387 41.596215 96.4082387 45.2477501 96.1002779 45.2477501 96.1002779 41.596215 94.6598687 41.596215 94.6598687 41.3550605 97.7970495 41.3550605 97.8377851 41.596215"></polygon>
                    <polygon id="Fill-48" fill="#2E2A25" points="98.4701638 45.2478587 98.4701638 41.3551692 100.679117 41.3551692 100.679117 41.5963236 98.779754 41.5963236 98.779754 43.0856155 100.297289 43.0856155 100.339111 43.3283994 98.779754 43.3283994 98.779754 45.0072474 100.742665 45.0072474 100.742665 45.2478587"></polygon>
                    <path d="M102.6933,41.596215 L101.957345,41.596215 L101.957345,43.1930487 L102.62758,43.1930487 C103.321714,43.1930487 103.761658,42.9127881 103.761658,42.3853985 C103.761658,41.8824502 103.362993,41.596215 102.6933,41.596215 M104.10438,45.2906582 L102.580327,43.4276855 L101.957345,43.4276855 L101.957345,45.2477501 L101.648297,45.2477501 L101.648297,41.3550605 L102.715569,41.3550605 C103.505839,41.3550605 104.070162,41.7673043 104.070162,42.3767082 C104.070162,42.9377726 103.588396,43.3092808 102.93011,43.4016148 L104.426462,45.2271107 L104.10438,45.2906582" id="Fill-49" fill="#2E2A25"></path>
                    <polygon id="Fill-50" fill="#2E2A25" points="108.087991 45.2478587 105.347303 41.8298741 105.347303 45.2478587 105.050748 45.2478587 105.050748 41.3551692 105.325034 41.3551692 107.980992 44.673759 107.980992 41.3551692 108.277547 41.3551692 108.277547 45.2478587"></polygon>
                    <path d="M110.743515,41.6971849 L109.858739,43.6758465 L111.627748,43.6758465 L110.743515,41.6971849 Z M112.34415,45.2906039 L111.73529,43.9164579 L109.752283,43.9164579 L109.159716,45.2476958 L108.839807,45.2476958 L110.613161,41.3354531 L110.892335,41.3354531 L112.661345,45.2270564 L112.34415,45.2906039 Z" id="Fill-51" fill="#2E2A25"></path>
                    <polygon id="Fill-52" fill="#2E2A25" points="114.041194 41.596215 114.041194 45.2477501 113.73106 45.2477501 113.73106 41.596215 112.290651 41.596215 112.290651 41.3550605 115.428375 41.3550605 115.469654 41.596215"></polygon>
                    <polygon id="Fill-53" fill="#2E2A25" points="116.352692 45.2481303 116.660653 45.2481303 116.660653 41.3554407 116.352692 41.3554407"></polygon>
                    <path d="M119.485636,41.5225108 C118.493318,41.5225108 117.83992,42.2470605 117.83992,43.3029261 C117.83992,44.3587917 118.504181,45.0800825 119.485636,45.0800825 C120.473066,45.0800825 121.127008,44.3587917 121.127008,43.3029261 C121.127008,42.2470605 120.462203,41.5225108 119.485636,41.5225108 M119.476403,45.3228664 C118.349929,45.3228664 117.533045,44.4924043 117.533045,43.3083575 C117.533045,42.1221382 118.349929,41.2797269 119.488895,41.2797269 C120.616455,41.2797269 121.436598,42.1139911 121.436598,43.2969516 C121.436598,44.4815415 120.616455,45.3228664 119.476403,45.3228664" id="Fill-54" fill="#2E2A25"></path>
                    <polygon id="Fill-55" fill="#2E2A25" points="125.088187 45.2478587 122.34587 41.8298741 122.34587 45.2478587 122.050401 45.2478587 122.050401 41.3551692 122.320885 41.3551692 124.981732 44.673759 124.981732 41.3551692 125.277743 41.3551692 125.277743 45.2478587"></polygon>
                    <path d="M127.742027,41.6971849 L126.856708,43.6758465 L128.62626,43.6758465 L127.742027,41.6971849 Z M129.345922,45.2906039 L128.733259,43.9164579 L126.749709,43.9164579 L126.157686,45.2476958 L125.838319,45.2476958 L127.61113,41.3354531 L127.890848,41.3354531 L129.6604,45.2270564 L129.345922,45.2906039 Z" id="Fill-56" fill="#2E2A25"></path>
                    <polygon id="Fill-57" fill="#2E2A25" points="130.337805 45.2478587 130.337805 41.3551692 130.644137 41.3551692 130.644137 45.0072474 132.425638 45.0072474 132.466917 45.2478587"></polygon>
                    <path d="M137.791217,45.2764822 L137.702685,44.7903713 C137.268172,45.1227734 136.781518,45.3231923 136.285087,45.3231923 C135.405199,45.3231923 134.824039,44.9266996 134.824039,44.0267154 L134.824039,41.381077 L135.133629,41.381077 L135.133629,44.0120506 C135.133629,44.7327984 135.561081,45.082581 136.301925,45.082581 C136.824426,45.082581 137.257309,44.8484873 137.691279,44.5068518 L137.691279,41.381077 L137.99924,41.381077 L137.99924,45.2764822 L137.791217,45.2764822" id="Fill-58" fill="#2E2A25"></path>
                    <polygon id="Fill-59" fill="#2E2A25" points="141.977311 45.2764822 139.237166 41.8563251 139.237166 45.2764822 138.939525 45.2764822 138.939525 41.381077 139.213268 41.381077 141.870312 44.7002099 141.870312 41.381077 142.166867 41.381077 142.166867 45.2764822"></polygon>
                    <polygon id="Fill-60" fill="#2E2A25" points="143.472795 45.2763736 143.780212 45.2763736 143.780212 41.3809683 143.472795 41.3809683"></polygon>
                    <polygon id="Fill-61" fill="#2E2A25" points="146.347204 45.2975018 146.109851 45.2975018 144.362025 41.4015534 144.674874 41.3412647 146.240748 44.8923188 147.790872 41.3814572 148.110782 41.3814572"></polygon>
                    <polygon id="Fill-62" fill="#2E2A25" points="148.671412 45.2764822 148.671412 41.381077 150.879279 41.381077 150.879279 41.6249471 148.981545 41.6249471 148.981545 43.1115233 150.49908 43.1115233 150.541445 43.3548504 148.981545 43.3548504 148.981545 45.0336983 150.946628 45.0336983 150.946628 45.2764822"></polygon>
                    <path d="M152.668927,41.6250015 L151.931885,41.6250015 L151.931885,43.2185763 L152.604294,43.2185763 C153.296255,43.2185763 153.734569,42.9377726 153.734569,42.4125555 C153.734569,41.9079778 153.337534,41.6250015 152.668927,41.6250015 M154.080007,45.316729 L152.55704,43.4537563 L151.931885,43.4537563 L151.931885,45.2765365 L151.623925,45.2765365 L151.623925,41.3811313 L152.692826,41.3811313 C153.479293,41.3811313 154.045246,41.7933751 154.045246,42.4033221 C154.045246,42.9649296 153.565653,43.3353516 152.905737,43.4276855 L154.403719,45.2537246 L154.080007,45.316729" id="Fill-63" fill="#2E2A25"></path>
                    <path d="M155.873621,45.3230837 C155.426616,45.3230837 155.010027,45.212283 154.763441,45.0911626 L154.81178,44.8136177 C155.069772,44.9553774 155.453773,45.0824724 155.90295,45.0824724 C156.492258,45.0824724 156.90776,44.7549585 156.90776,44.3074106 C156.90776,43.9163492 156.676383,43.7132146 155.948031,43.4014518 C155.122457,43.0484104 154.80309,42.8197481 154.80309,42.2760642 C154.80309,41.7405275 155.344601,41.3358877 156.019182,41.3358877 C156.445548,41.3358877 156.729067,41.4249627 156.963704,41.5297889 L156.913735,41.8095064 C156.693763,41.6764369 156.395036,41.576499 156.001259,41.576499 C155.465722,41.576499 155.111051,41.8964089 155.111051,42.2619426 C155.111051,42.6492019 155.395114,42.8664582 156.078928,43.1440031 C156.863223,43.4704307 157.217894,43.7343971 157.217894,44.2693907 C157.217894,44.8978045 156.651398,45.3230837 155.873621,45.3230837" id="Fill-64" fill="#2E2A25"></path>
                    <polygon id="Fill-65" fill="#2E2A25" points="158.197883 45.2763736 158.504757 45.2763736 158.504757 41.3809683 158.197883 41.3809683"></polygon>
                    <polygon id="Fill-66" fill="#2E2A25" points="160.807294 41.6250015 160.807294 45.2765365 160.497703 45.2765365 160.497703 41.6250015 159.055665 41.6250015 159.055665 41.3811313 162.196104 41.3811313 162.234124 41.6250015"></polygon>
                    <polygon id="Fill-67" fill="#2E2A25" points="162.892248 45.2763736 163.198579 45.2763736 163.198579 41.3809683 162.892248 41.3809683"></polygon>
                    <polygon id="Fill-68" fill="#2E2A25" points="164.271228 45.2764822 164.271228 41.381077 166.480724 41.381077 166.480724 41.6249471 164.581361 41.6249471 164.581361 43.1115233 166.098896 43.1115233 166.142891 43.3548504 164.581361 43.3548504 164.581361 45.0336983 166.543729 45.0336983 166.543729 45.2764822"></polygon>
                    <path d="M168.226922,45.3230837 C167.778288,45.3230837 167.363328,45.212283 167.117285,45.0911626 L167.165082,44.8136177 C167.421987,44.9553774 167.807074,45.0824724 168.256251,45.0824724 C168.845016,45.0824724 169.259975,44.7549585 169.259975,44.3074106 C169.259975,43.9163492 169.029684,43.7132146 168.301332,43.4014518 C167.476844,43.0484104 167.156935,42.8197481 167.156935,42.2760642 C167.156935,41.7405275 167.697903,41.3358877 168.368682,41.3358877 C168.798306,41.3358877 169.082912,41.4249627 169.313746,41.5297889 L169.266493,41.8095064 C169.04978,41.6764369 168.751053,41.576499 168.354017,41.576499 C167.819023,41.576499 167.464352,41.8964089 167.464352,42.2619426 C167.464352,42.6492019 167.748415,42.8664582 168.427884,43.1440031 C169.212722,43.4704307 169.571195,43.7343971 169.571195,44.2693907 C169.571195,44.8978045 169.006329,45.3230837 168.226922,45.3230837" id="Fill-69" fill="#2E2A25"></path>
                    <polygon id="Fill-70" fill="#2E2A25" points="56.794596 45.2764822 56.794596 41.2773371 57.8091828 41.2773371 57.8091828 44.5388971 59.2745765 44.5388971 59.4125343 45.2764822"></polygon>
                    <path d="M61.8533543,42.1974175 L61.2526407,43.6448875 L62.4524386,43.6448875 L61.8533543,42.1974175 Z M63.141141,45.3166746 L62.7261815,44.3129506 L60.9805272,44.3129506 L60.5840345,45.2764822 L59.5928027,45.2764822 L61.3672434,41.2637586 L62.4100736,41.2637586 L64.1426925,45.163509 L63.141141,45.3166746 Z" id="Fill-71" fill="#2E2A25"></path>
                    <path d="M67.2083417,45.2764822 L67.1355608,44.8745581 C66.6918148,45.1548187 66.2535003,45.3231923 65.7071007,45.3231923 C64.7576907,45.3231923 64.2053166,44.9266996 64.2053166,43.9832642 L64.2053166,41.2773371 L65.2209898,41.2773371 L65.2209898,43.870834 C65.2209898,44.353143 65.4453069,44.5915818 65.9493415,44.5915818 C66.3534382,44.5915818 66.7037639,44.4395024 67.0421406,44.1804243 L67.0421406,41.2773371 L68.0632452,41.2773371 L68.0632452,45.2764822 L67.2083417,45.2764822" id="Fill-72" fill="#2E2A25"></path>
                    <path d="M70.330912,41.9315501 L69.8980288,41.9315501 L69.8980288,43.1530736 L70.3135315,43.1530736 C70.8430937,43.1530736 71.1331309,42.9564566 71.1331309,42.5393246 C71.1331309,42.1460907 70.8593879,41.9315501 70.330912,41.9315501 M71.3818893,45.3169462 L70.2070759,43.7537872 L69.9040034,43.7537872 L69.9040034,45.2767538 L68.9133147,45.2767538 L68.9133147,41.2776087 L70.4324793,41.2776087 C71.4823703,41.2776087 72.0988351,41.6969133 72.0988351,42.4812085 C72.0988351,43.0515063 71.7675192,43.4078066 71.1988509,43.5816116 L72.4133135,45.1632374 L71.3818893,45.3169462" id="Fill-73" fill="#2E2A25"></path>
                    <polygon id="Fill-74" fill="#2E2A25" points="72.8614589 45.2764822 72.8614589 41.2773371 75.5744469 41.2773371 75.5744469 41.9665827 73.8635536 41.9665827 73.8635536 42.8459275 75.1507971 42.8459275 75.2833234 43.5514673 73.8635536 43.5514673 73.8635536 44.5883229 75.6385375 44.5883229 75.6385375 45.2764822"></polygon>
                    <path d="M77.9022937,42.1974175 L77.30158,43.6448875 L78.501921,43.6448875 L77.9022937,42.1974175 Z M79.1895372,45.3166746 L78.7745777,44.3129506 L77.0321822,44.3129506 L76.6329738,45.2764822 L75.641742,45.2764822 L77.4167259,41.2637586 L78.4606423,41.2637586 L80.192175,45.163509 L79.1895372,45.3166746 Z" id="Fill-75" fill="#2E2A25"></path>
                    <polygon id="Fill-76" fill="#2E2A25" points="82.0169649 41.992056 82.0169649 45.2764279 81.002378 45.2764279 81.002378 41.992056 79.5847807 41.992056 79.5847807 41.2772828 83.3824206 41.2772828 83.5127744 41.992056"></polygon>
                    <polygon id="Fill-77" fill="#2E2A25" points="83.8641865 45.2764822 83.8641865 41.2773371 86.5766312 41.2773371 86.5766312 41.9665827 84.8668242 41.9665827 84.8668242 42.8459275 86.1540677 42.8459275 86.2849647 43.5514673 84.8668242 43.5514673 84.8668242 44.5883229 86.641265 44.5883229 86.641265 45.2764822"></polygon>
                </g>
            </g>
        </g>
    </g>
</svg>